<svg xmlns="http://www.w3.org/2000/svg" xmlns:xlink="http://www.w3.org/1999/xlink" width="500" zoomAndPan="magnify" viewBox="0 0 375 374.999991" height="500" preserveAspectRatio="xMidYMid meet" version="1.0"><defs><clipPath id="d62b93e363"><path d="M 345.347656 0 L 375 0 L 375 29.652344 L 345.347656 29.652344 Z M 345.347656 0 " clip-rule="nonzero"/></clipPath><clipPath id="67d4bde9ce"><path d="M 345 345 L 374.996094 345 L 374.996094 374.996094 L 345 374.996094 Z M 345 345 " clip-rule="nonzero"/></clipPath><clipPath id="43cc58958d"><path d="M 345.347656 29.652344 L 375 29.652344 L 375 345.34375 L 345.347656 345.34375 Z M 345.347656 29.652344 " clip-rule="nonzero"/></clipPath><clipPath id="ecbf36951c"><path d="M 345.347656 345.347656 L 375 345.347656 L 375 375 L 345.347656 375 Z M 345.347656 345.347656 " clip-rule="nonzero"/></clipPath><clipPath id="63f2ba3a93"><path d="M 0 345 L 30 345 L 30 374.996094 L 0 374.996094 Z M 0 345 " clip-rule="nonzero"/></clipPath><clipPath id="af080786a6"><path d="M 29.652344 345.347656 L 345.347656 345.347656 L 345.347656 375 L 29.652344 375 Z M 29.652344 345.347656 " clip-rule="nonzero"/></clipPath><clipPath id="2a18bfccf6"><path d="M 0 0 L 29.652344 0 L 29.652344 29.648438 L 0 29.648438 Z M 0 0 " clip-rule="nonzero"/></clipPath><clipPath id="8e0807c6a6"><path d="M 29.652344 0 L 345.347656 0 L 345.347656 29.648438 L 29.652344 29.648438 Z M 29.652344 0 " clip-rule="nonzero"/></clipPath><clipPath id="18bb2d824a"><path d="M 0 345.34375 L 29.652344 345.34375 L 29.652344 375 L 0 375 Z M 0 345.34375 " clip-rule="nonzero"/></clipPath><clipPath id="36ecd7abcd"><path d="M 0.00390625 0 L 30 0 L 30 29.996094 L 0.00390625 29.996094 Z M 0.00390625 0 " clip-rule="nonzero"/></clipPath><clipPath id="fce6e86115"><path d="M 0 29.652344 L 29.652344 29.652344 L 29.652344 345.34375 L 0 345.34375 Z M 0 29.652344 " clip-rule="nonzero"/></clipPath><clipPath id="344b0c8cd3"><path d="M 37.5 37.5 L 82.839844 37.5 L 82.839844 52.613281 L 37.5 52.613281 Z M 37.5 37.5 " clip-rule="nonzero"/></clipPath><clipPath id="3eb2528f0f"><path d="M 37.503906 37.496094 L 52.617188 37.496094 L 52.617188 82.835938 L 37.503906 82.835938 Z M 37.503906 37.496094 " clip-rule="nonzero"/></clipPath><clipPath id="4cb033aebd"><path d="M 37.503906 292.15625 L 52.617188 292.15625 L 52.617188 337.496094 L 37.503906 337.496094 Z M 37.503906 292.15625 " clip-rule="nonzero"/></clipPath><clipPath id="2ee3b06951"><path d="M 37.5 322.378906 L 82.839844 322.378906 L 82.839844 337.492188 L 37.5 337.492188 Z M 37.5 322.378906 " clip-rule="nonzero"/></clipPath><clipPath id="ab7c2a48f4"><path d="M 292.160156 322.378906 L 337.5 322.378906 L 337.5 337.492188 L 292.160156 337.492188 Z M 292.160156 322.378906 " clip-rule="nonzero"/></clipPath><clipPath id="7716535989"><path d="M 322.382812 292.15625 L 337.496094 292.15625 L 337.496094 337.496094 L 322.382812 337.496094 Z M 322.382812 292.15625 " clip-rule="nonzero"/></clipPath><clipPath id="c37fb9fbba"><path d="M 322.382812 37.496094 L 337.496094 37.496094 L 337.496094 82.835938 L 322.382812 82.835938 Z M 322.382812 37.496094 " clip-rule="nonzero"/></clipPath><clipPath id="296d5485b7"><path d="M 292.160156 37.5 L 337.5 37.5 L 337.5 52.613281 L 292.160156 52.613281 Z M 292.160156 37.5 " clip-rule="nonzero"/></clipPath><clipPath id="f3d333a3aa"><path d="M 75.101562 74.789062 L 299.898438 74.789062 L 299.898438 300.210938 L 75.101562 300.210938 Z M 75.101562 74.789062 " clip-rule="nonzero"/></clipPath><clipPath id="07c4ab8f8e"><path d="M 89.597656 89.28125 L 285.402344 89.28125 L 285.402344 285.714844 L 89.597656 285.714844 Z M 89.597656 89.28125 " clip-rule="nonzero"/></clipPath><clipPath id="ecae535a47"><path d="M 112.703125 112.078125 L 262.75 112.078125 L 262.75 262.921875 L 112.703125 262.921875 Z M 112.703125 112.078125 " clip-rule="nonzero"/></clipPath><clipPath id="0f8928811c"><path d="M 131.292969 131.292969 L 244.160156 131.292969 L 244.160156 244.167969 L 131.292969 244.167969 Z M 131.292969 131.292969 " clip-rule="nonzero"/></clipPath></defs><rect x="-37.5" width="450" fill="#ffffff" y="-37.499999" height="449.999989" fill-opacity="1"/><rect x="-37.5" width="450" fill="#808080" y="-37.499999" height="449.999989" fill-opacity="1"/><g clip-path="url(#d62b93e363)"><path fill="#cbcbcb" d="M 374.996094 0.00390625 L 374.996094 29.652344 L 345.347656 29.652344 Z M 374.996094 0.00390625 " fill-opacity="1" fill-rule="nonzero"/></g><g clip-path="url(#67d4bde9ce)"><path fill="#cbcbcb" d="M 345.347656 345.347656 L 374.996094 345.347656 L 374.996094 374.996094 Z M 345.347656 345.347656 " fill-opacity="1" fill-rule="nonzero"/></g><g clip-path="url(#43cc58958d)"><path fill="#cbcbcb" d="M 345.347656 345.34375 L 345.347656 29.703125 L 375.003906 29.703125 L 375.003906 345.34375 Z M 345.347656 345.34375 " fill-opacity="1" fill-rule="nonzero"/></g><g clip-path="url(#ecbf36951c)"><path fill="#4e4e4e" d="M 374.996094 374.996094 L 345.347656 374.996094 L 345.347656 345.347656 Z M 374.996094 374.996094 " fill-opacity="1" fill-rule="nonzero"/></g><g clip-path="url(#63f2ba3a93)"><path fill="#4e4e4e" d="M 29.648438 345.347656 L 29.648438 374.996094 L 0 374.996094 Z M 29.648438 345.347656 " fill-opacity="1" fill-rule="nonzero"/></g><g clip-path="url(#af080786a6)"><path fill="#4e4e4e" d="M 29.652344 345.347656 L 345.292969 345.347656 L 345.292969 375 L 29.652344 375 Z M 29.652344 345.347656 " fill-opacity="1" fill-rule="nonzero"/></g><g clip-path="url(#2a18bfccf6)"><path fill="#e4e4e4" d="M 0.00390625 0 L 29.652344 0 L 29.652344 29.648438 Z M 0.00390625 0 " fill-opacity="1" fill-rule="nonzero"/></g><path fill="#e4e4e4" d="M 345.351562 29.648438 L 345.351562 0 L 375 0 Z M 345.351562 29.648438 " fill-opacity="1" fill-rule="nonzero"/><g clip-path="url(#8e0807c6a6)"><path fill="#e4e4e4" d="M 345.347656 29.648438 L 29.707031 29.648438 L 29.707031 -0.00390625 L 345.347656 -0.00390625 Z M 345.347656 29.648438 " fill-opacity="1" fill-rule="nonzero"/></g><g clip-path="url(#18bb2d824a)"><path fill="#4e4e4e" d="M 0.00390625 374.992188 L 0.00390625 345.34375 L 29.652344 345.34375 Z M 0.00390625 374.992188 " fill-opacity="1" fill-rule="nonzero"/></g><g clip-path="url(#36ecd7abcd)"><path fill="#4e4e4e" d="M 29.652344 29.644531 L 0.00390625 29.644531 L 0.00390625 -0.00390625 Z M 29.652344 29.644531 " fill-opacity="1" fill-rule="nonzero"/></g><g clip-path="url(#fce6e86115)"><path fill="#4e4e4e" d="M 29.652344 29.652344 L 29.652344 345.292969 L -0.00390625 345.292969 L -0.00390625 29.652344 Z M 29.652344 29.652344 " fill-opacity="1" fill-rule="nonzero"/></g><g clip-path="url(#344b0c8cd3)"><path fill="#afb7be" d="M 37.5 37.5 L 82.839844 37.5 L 82.839844 52.613281 L 37.5 52.613281 Z M 37.5 37.5 " fill-opacity="1" fill-rule="nonzero"/></g><g clip-path="url(#3eb2528f0f)"><path fill="#afb7be" d="M 37.503906 82.835938 L 37.503906 37.496094 L 52.617188 37.496094 L 52.617188 82.835938 Z M 37.503906 82.835938 " fill-opacity="1" fill-rule="nonzero"/></g><g clip-path="url(#4cb033aebd)"><path fill="#afb7be" d="M 37.503906 337.496094 L 37.503906 292.15625 L 52.617188 292.15625 L 52.617188 337.496094 Z M 37.503906 337.496094 " fill-opacity="1" fill-rule="nonzero"/></g><g clip-path="url(#2ee3b06951)"><path fill="#afb7be" d="M 82.839844 337.492188 L 37.5 337.492188 L 37.5 322.378906 L 82.839844 322.378906 Z M 82.839844 337.492188 " fill-opacity="1" fill-rule="nonzero"/></g><g clip-path="url(#ab7c2a48f4)"><path fill="#afb7be" d="M 337.5 337.492188 L 292.160156 337.492188 L 292.160156 322.378906 L 337.5 322.378906 Z M 337.5 337.492188 " fill-opacity="1" fill-rule="nonzero"/></g><g clip-path="url(#7716535989)"><path fill="#afb7be" d="M 337.496094 292.15625 L 337.496094 337.496094 L 322.382812 337.496094 L 322.382812 292.15625 Z M 337.496094 292.15625 " fill-opacity="1" fill-rule="nonzero"/></g><g clip-path="url(#c37fb9fbba)"><path fill="#afb7be" d="M 337.496094 37.496094 L 337.496094 82.835938 L 322.382812 82.835938 L 322.382812 37.496094 Z M 337.496094 37.496094 " fill-opacity="1" fill-rule="nonzero"/></g><g clip-path="url(#296d5485b7)"><path fill="#afb7be" d="M 292.160156 37.5 L 337.5 37.5 L 337.5 52.613281 L 292.160156 52.613281 Z M 292.160156 37.5 " fill-opacity="1" fill-rule="nonzero"/></g><g clip-path="url(#f3d333a3aa)"><path fill="#feaaaa" d="M 75.101562 74.789062 L 299.898438 74.789062 L 299.898438 300.460938 L 75.101562 300.460938 Z M 75.101562 74.789062 " fill-opacity="1" fill-rule="nonzero"/></g><g clip-path="url(#07c4ab8f8e)"><path fill="#ff0000" d="M 89.597656 89.28125 L 285.402344 89.28125 L 285.402344 285.855469 L 89.597656 285.855469 Z M 89.597656 89.28125 " fill-opacity="1" fill-rule="nonzero"/></g><g clip-path="url(#ecae535a47)"><path fill="#646464" d="M 112.703125 112.078125 L 262.75 112.078125 L 262.75 262.714844 L 112.703125 262.714844 Z M 112.703125 112.078125 " fill-opacity="1" fill-rule="nonzero"/></g><g clip-path="url(#0f8928811c)"><path fill="#4b4b4b" d="M 131.292969 131.292969 L 244.160156 131.292969 L 244.160156 244.160156 L 131.292969 244.160156 Z M 131.292969 131.292969 " fill-opacity="1" fill-rule="nonzero"/></g></svg>