<svg xmlns="http://www.w3.org/2000/svg" xmlns:xlink="http://www.w3.org/1999/xlink" width="500" zoomAndPan="magnify" viewBox="0 0 375 374.999991" height="500" preserveAspectRatio="xMidYMid meet" version="1.0"><defs><clipPath id="16aff5cf19"><path d="M 345.347656 0 L 375 0 L 375 29.652344 L 345.347656 29.652344 Z M 345.347656 0 " clip-rule="nonzero"/></clipPath><clipPath id="a330f00417"><path d="M 345 345 L 374.996094 345 L 374.996094 374.996094 L 345 374.996094 Z M 345 345 " clip-rule="nonzero"/></clipPath><clipPath id="bfe74fd051"><path d="M 345.347656 29.652344 L 375 29.652344 L 375 345.34375 L 345.347656 345.34375 Z M 345.347656 29.652344 " clip-rule="nonzero"/></clipPath><clipPath id="1dac30ece7"><path d="M 345.347656 345.347656 L 375 345.347656 L 375 375 L 345.347656 375 Z M 345.347656 345.347656 " clip-rule="nonzero"/></clipPath><clipPath id="b145be0462"><path d="M 0 345 L 30 345 L 30 374.996094 L 0 374.996094 Z M 0 345 " clip-rule="nonzero"/></clipPath><clipPath id="59d94b62b2"><path d="M 29.652344 345.347656 L 345.347656 345.347656 L 345.347656 375 L 29.652344 375 Z M 29.652344 345.347656 " clip-rule="nonzero"/></clipPath><clipPath id="39d5af2e53"><path d="M 0 0 L 29.652344 0 L 29.652344 29.648438 L 0 29.648438 Z M 0 0 " clip-rule="nonzero"/></clipPath><clipPath id="bf8254c5cb"><path d="M 29.652344 0 L 345.347656 0 L 345.347656 29.648438 L 29.652344 29.648438 Z M 29.652344 0 " clip-rule="nonzero"/></clipPath><clipPath id="73bdd3e270"><path d="M 0 345.34375 L 29.652344 345.34375 L 29.652344 375 L 0 375 Z M 0 345.34375 " clip-rule="nonzero"/></clipPath><clipPath id="22a39d8c02"><path d="M 0.00390625 0 L 30 0 L 30 29.996094 L 0.00390625 29.996094 Z M 0.00390625 0 " clip-rule="nonzero"/></clipPath><clipPath id="b08fea6b1a"><path d="M 0 29.652344 L 29.652344 29.652344 L 29.652344 345.34375 L 0 345.34375 Z M 0 29.652344 " clip-rule="nonzero"/></clipPath></defs><rect x="-37.5" width="450" fill="#ffffff" y="-37.499999" height="449.999989" fill-opacity="1"/><rect x="-37.5" width="450" fill="#0000ff" y="-37.499999" height="449.999989" fill-opacity="1"/><g clip-path="url(#16aff5cf19)"><path fill="#4b4bff" d="M 374.996094 0.00390625 L 374.996094 29.652344 L 345.347656 29.652344 Z M 374.996094 0.00390625 " fill-opacity="1" fill-rule="nonzero"/></g><g clip-path="url(#a330f00417)"><path fill="#4b4bff" d="M 345.347656 345.347656 L 374.996094 345.347656 L 374.996094 374.996094 Z M 345.347656 345.347656 " fill-opacity="1" fill-rule="nonzero"/></g><g clip-path="url(#bfe74fd051)"><path fill="#4b4bff" d="M 345.347656 345.34375 L 345.347656 29.703125 L 375.003906 29.703125 L 375.003906 345.34375 Z M 345.347656 345.34375 " fill-opacity="1" fill-rule="nonzero"/></g><g clip-path="url(#1dac30ece7)"><path fill="#0000c8" d="M 374.996094 374.996094 L 345.347656 374.996094 L 345.347656 345.347656 Z M 374.996094 374.996094 " fill-opacity="1" fill-rule="nonzero"/></g><g clip-path="url(#b145be0462)"><path fill="#0000c8" d="M 29.648438 345.347656 L 29.648438 374.996094 L 0 374.996094 Z M 29.648438 345.347656 " fill-opacity="1" fill-rule="nonzero"/></g><g clip-path="url(#59d94b62b2)"><path fill="#0000c8" d="M 29.652344 345.347656 L 345.292969 345.347656 L 345.292969 375 L 29.652344 375 Z M 29.652344 345.347656 " fill-opacity="1" fill-rule="nonzero"/></g><g clip-path="url(#39d5af2e53)"><path fill="#6464ff" d="M 0.00390625 0 L 29.652344 0 L 29.652344 29.648438 Z M 0.00390625 0 " fill-opacity="1" fill-rule="nonzero"/></g><path fill="#6464ff" d="M 345.351562 29.648438 L 345.351562 0 L 375 0 Z M 345.351562 29.648438 " fill-opacity="1" fill-rule="nonzero"/><g clip-path="url(#bf8254c5cb)"><path fill="#6464ff" d="M 345.347656 29.648438 L 29.707031 29.648438 L 29.707031 -0.00390625 L 345.347656 -0.00390625 Z M 345.347656 29.648438 " fill-opacity="1" fill-rule="nonzero"/></g><g clip-path="url(#73bdd3e270)"><path fill="#0000c8" d="M 0.00390625 374.992188 L 0.00390625 345.34375 L 29.652344 345.34375 Z M 0.00390625 374.992188 " fill-opacity="1" fill-rule="nonzero"/></g><g clip-path="url(#22a39d8c02)"><path fill="#0000c8" d="M 29.652344 29.644531 L 0.00390625 29.644531 L 0.00390625 -0.00390625 Z M 29.652344 29.644531 " fill-opacity="1" fill-rule="nonzero"/></g><g clip-path="url(#b08fea6b1a)"><path fill="#0000c8" d="M 29.652344 29.652344 L 29.652344 345.292969 L -0.00390625 345.292969 L -0.00390625 29.652344 Z M 29.652344 29.652344 " fill-opacity="1" fill-rule="nonzero"/></g></svg>