<svg xmlns="http://www.w3.org/2000/svg" xmlns:xlink="http://www.w3.org/1999/xlink" width="500" zoomAndPan="magnify" viewBox="0 0 375 374.999991" height="500" preserveAspectRatio="xMidYMid meet" version="1.0"><defs><clipPath id="3e2a9674c1"><path d="M 345.347656 0 L 375 0 L 375 29.652344 L 345.347656 29.652344 Z M 345.347656 0 " clip-rule="nonzero"/></clipPath><clipPath id="9d50629c19"><path d="M 345 345 L 374.996094 345 L 374.996094 374.996094 L 345 374.996094 Z M 345 345 " clip-rule="nonzero"/></clipPath><clipPath id="16471d87be"><path d="M 345.347656 29.652344 L 375 29.652344 L 375 345.34375 L 345.347656 345.34375 Z M 345.347656 29.652344 " clip-rule="nonzero"/></clipPath><clipPath id="61ce424296"><path d="M 345.347656 345.347656 L 375 345.347656 L 375 375 L 345.347656 375 Z M 345.347656 345.347656 " clip-rule="nonzero"/></clipPath><clipPath id="47b60274d3"><path d="M 0 345 L 30 345 L 30 374.996094 L 0 374.996094 Z M 0 345 " clip-rule="nonzero"/></clipPath><clipPath id="354ffc2a70"><path d="M 29.652344 345.347656 L 345.347656 345.347656 L 345.347656 375 L 29.652344 375 Z M 29.652344 345.347656 " clip-rule="nonzero"/></clipPath><clipPath id="322e03172c"><path d="M 0 0 L 29.652344 0 L 29.652344 29.648438 L 0 29.648438 Z M 0 0 " clip-rule="nonzero"/></clipPath><clipPath id="afb8725c3c"><path d="M 29.652344 0 L 345.347656 0 L 345.347656 29.648438 L 29.652344 29.648438 Z M 29.652344 0 " clip-rule="nonzero"/></clipPath><clipPath id="1803604e89"><path d="M 0 345.34375 L 29.652344 345.34375 L 29.652344 375 L 0 375 Z M 0 345.34375 " clip-rule="nonzero"/></clipPath><clipPath id="ec53bef500"><path d="M 0.00390625 0 L 30 0 L 30 29.996094 L 0.00390625 29.996094 Z M 0.00390625 0 " clip-rule="nonzero"/></clipPath><clipPath id="ad87978328"><path d="M 0 29.652344 L 29.652344 29.652344 L 29.652344 345.34375 L 0 345.34375 Z M 0 29.652344 " clip-rule="nonzero"/></clipPath></defs><rect x="-37.5" width="450" fill="#ffffff" y="-37.499999" height="449.999989" fill-opacity="1"/><rect x="-37.5" width="450" fill="#191919" y="-37.499999" height="449.999989" fill-opacity="1"/><g clip-path="url(#3e2a9674c1)"><path fill="#4b4b4b" d="M 374.996094 0.00390625 L 374.996094 29.652344 L 345.347656 29.652344 Z M 374.996094 0.00390625 " fill-opacity="1" fill-rule="nonzero"/></g><g clip-path="url(#9d50629c19)"><path fill="#4b4b4b" d="M 345.347656 345.347656 L 374.996094 345.347656 L 374.996094 374.996094 Z M 345.347656 345.347656 " fill-opacity="1" fill-rule="nonzero"/></g><g clip-path="url(#16471d87be)"><path fill="#4b4b4b" d="M 345.347656 345.34375 L 345.347656 29.703125 L 375.003906 29.703125 L 375.003906 345.34375 Z M 345.347656 345.34375 " fill-opacity="1" fill-rule="nonzero"/></g><g clip-path="url(#61ce424296)"><path fill="#000000" d="M 374.996094 374.996094 L 345.347656 374.996094 L 345.347656 345.347656 Z M 374.996094 374.996094 " fill-opacity="1" fill-rule="nonzero"/></g><g clip-path="url(#47b60274d3)"><path fill="#000000" d="M 29.648438 345.347656 L 29.648438 374.996094 L 0 374.996094 Z M 29.648438 345.347656 " fill-opacity="1" fill-rule="nonzero"/></g><g clip-path="url(#354ffc2a70)"><path fill="#000000" d="M 29.652344 345.347656 L 345.292969 345.347656 L 345.292969 375 L 29.652344 375 Z M 29.652344 345.347656 " fill-opacity="1" fill-rule="nonzero"/></g><g clip-path="url(#322e03172c)"><path fill="#646464" d="M 0.00390625 0 L 29.652344 0 L 29.652344 29.648438 Z M 0.00390625 0 " fill-opacity="1" fill-rule="nonzero"/></g><path fill="#646464" d="M 345.351562 29.648438 L 345.351562 0 L 375 0 Z M 345.351562 29.648438 " fill-opacity="1" fill-rule="nonzero"/><g clip-path="url(#afb8725c3c)"><path fill="#646464" d="M 345.347656 29.648438 L 29.707031 29.648438 L 29.707031 -0.00390625 L 345.347656 -0.00390625 Z M 345.347656 29.648438 " fill-opacity="1" fill-rule="nonzero"/></g><g clip-path="url(#1803604e89)"><path fill="#000000" d="M 0.00390625 374.992188 L 0.00390625 345.34375 L 29.652344 345.34375 Z M 0.00390625 374.992188 " fill-opacity="1" fill-rule="nonzero"/></g><g clip-path="url(#ec53bef500)"><path fill="#000000" d="M 29.652344 29.644531 L 0.00390625 29.644531 L 0.00390625 -0.00390625 Z M 29.652344 29.644531 " fill-opacity="1" fill-rule="nonzero"/></g><g clip-path="url(#ad87978328)"><path fill="#000000" d="M 29.652344 29.652344 L 29.652344 345.292969 L -0.00390625 345.292969 L -0.00390625 29.652344 Z M 29.652344 29.652344 " fill-opacity="1" fill-rule="nonzero"/></g></svg>