<svg xmlns="http://www.w3.org/2000/svg" xmlns:xlink="http://www.w3.org/1999/xlink" width="500" zoomAndPan="magnify" viewBox="0 0 375 374.999991" height="500" preserveAspectRatio="xMidYMid meet" version="1.0"><defs><clipPath id="cc2859a0d7"><path d="M 345.347656 0 L 375 0 L 375 29.652344 L 345.347656 29.652344 Z M 345.347656 0 " clip-rule="nonzero"/></clipPath><clipPath id="9f24d1f115"><path d="M 345 345 L 374.996094 345 L 374.996094 374.996094 L 345 374.996094 Z M 345 345 " clip-rule="nonzero"/></clipPath><clipPath id="c39c813640"><path d="M 345.347656 29.652344 L 375 29.652344 L 375 345.34375 L 345.347656 345.34375 Z M 345.347656 29.652344 " clip-rule="nonzero"/></clipPath><clipPath id="9b8f4c14c2"><path d="M 345.347656 345.347656 L 375 345.347656 L 375 375 L 345.347656 375 Z M 345.347656 345.347656 " clip-rule="nonzero"/></clipPath><clipPath id="f05c5a531c"><path d="M 0 345 L 30 345 L 30 374.996094 L 0 374.996094 Z M 0 345 " clip-rule="nonzero"/></clipPath><clipPath id="0801f41058"><path d="M 29.652344 345.347656 L 345.347656 345.347656 L 345.347656 375 L 29.652344 375 Z M 29.652344 345.347656 " clip-rule="nonzero"/></clipPath><clipPath id="8128727ee8"><path d="M 0 0 L 29.652344 0 L 29.652344 29.648438 L 0 29.648438 Z M 0 0 " clip-rule="nonzero"/></clipPath><clipPath id="a7a8d45ab2"><path d="M 29.652344 0 L 345.347656 0 L 345.347656 29.648438 L 29.652344 29.648438 Z M 29.652344 0 " clip-rule="nonzero"/></clipPath><clipPath id="784335c450"><path d="M 0 345.34375 L 29.652344 345.34375 L 29.652344 375 L 0 375 Z M 0 345.34375 " clip-rule="nonzero"/></clipPath><clipPath id="a7d54ea13e"><path d="M 0.00390625 0 L 30 0 L 30 29.996094 L 0.00390625 29.996094 Z M 0.00390625 0 " clip-rule="nonzero"/></clipPath><clipPath id="e29b3f17aa"><path d="M 0 29.652344 L 29.652344 29.652344 L 29.652344 345.34375 L 0 345.34375 Z M 0 29.652344 " clip-rule="nonzero"/></clipPath></defs><rect x="-37.5" width="450" fill="#ffffff" y="-37.499999" height="449.999989" fill-opacity="1"/><rect x="-37.5" width="450" fill="#9403fc" y="-37.499999" height="449.999989" fill-opacity="1"/><g clip-path="url(#cc2859a0d7)"><path fill="#944efc" d="M 374.996094 0.00390625 L 374.996094 29.652344 L 345.347656 29.652344 Z M 374.996094 0.00390625 " fill-opacity="1" fill-rule="nonzero"/></g><g clip-path="url(#9f24d1f115)"><path fill="#944efc" d="M 345.347656 345.347656 L 374.996094 345.347656 L 374.996094 374.996094 Z M 345.347656 345.347656 " fill-opacity="1" fill-rule="nonzero"/></g><g clip-path="url(#c39c813640)"><path fill="#944efc" d="M 345.347656 345.34375 L 345.347656 29.703125 L 375.003906 29.703125 L 375.003906 345.34375 Z M 345.347656 345.34375 " fill-opacity="1" fill-rule="nonzero"/></g><g clip-path="url(#9b8f4c14c2)"><path fill="#5d03c5" d="M 374.996094 374.996094 L 345.347656 374.996094 L 345.347656 345.347656 Z M 374.996094 374.996094 " fill-opacity="1" fill-rule="nonzero"/></g><g clip-path="url(#f05c5a531c)"><path fill="#5d03c5" d="M 29.648438 345.347656 L 29.648438 374.996094 L 0 374.996094 Z M 29.648438 345.347656 " fill-opacity="1" fill-rule="nonzero"/></g><g clip-path="url(#0801f41058)"><path fill="#5d03c5" d="M 29.652344 345.347656 L 345.292969 345.347656 L 345.292969 375 L 29.652344 375 Z M 29.652344 345.347656 " fill-opacity="1" fill-rule="nonzero"/></g><g clip-path="url(#8128727ee8)"><path fill="#9467fc" d="M 0.00390625 0 L 29.652344 0 L 29.652344 29.648438 Z M 0.00390625 0 " fill-opacity="1" fill-rule="nonzero"/></g><path fill="#9467fc" d="M 345.351562 29.648438 L 345.351562 0 L 375 0 Z M 345.351562 29.648438 " fill-opacity="1" fill-rule="nonzero"/><g clip-path="url(#a7a8d45ab2)"><path fill="#9467fc" d="M 345.347656 29.648438 L 29.707031 29.648438 L 29.707031 -0.00390625 L 345.347656 -0.00390625 Z M 345.347656 29.648438 " fill-opacity="1" fill-rule="nonzero"/></g><g clip-path="url(#784335c450)"><path fill="#5d03c5" d="M 0.00390625 374.992188 L 0.00390625 345.34375 L 29.652344 345.34375 Z M 0.00390625 374.992188 " fill-opacity="1" fill-rule="nonzero"/></g><g clip-path="url(#a7d54ea13e)"><path fill="#5d03c5" d="M 29.652344 29.644531 L 0.00390625 29.644531 L 0.00390625 -0.00390625 Z M 29.652344 29.644531 " fill-opacity="1" fill-rule="nonzero"/></g><g clip-path="url(#e29b3f17aa)"><path fill="#5d03c5" d="M 29.652344 29.652344 L 29.652344 345.292969 L -0.00390625 345.292969 L -0.00390625 29.652344 Z M 29.652344 29.652344 " fill-opacity="1" fill-rule="nonzero"/></g></svg>