<svg xmlns="http://www.w3.org/2000/svg" xmlns:xlink="http://www.w3.org/1999/xlink" width="500" zoomAndPan="magnify" viewBox="0 0 375 374.999991" height="500" preserveAspectRatio="xMidYMid meet" version="1.0"><defs><clipPath id="839ea56a43"><path d="M 345.347656 0 L 375 0 L 375 29.652344 L 345.347656 29.652344 Z M 345.347656 0 " clip-rule="nonzero"/></clipPath><clipPath id="5cf4d00ccb"><path d="M 345 345 L 374.996094 345 L 374.996094 374.996094 L 345 374.996094 Z M 345 345 " clip-rule="nonzero"/></clipPath><clipPath id="59b3994e01"><path d="M 345.347656 29.652344 L 375 29.652344 L 375 345.34375 L 345.347656 345.34375 Z M 345.347656 29.652344 " clip-rule="nonzero"/></clipPath><clipPath id="a6f5d61ae8"><path d="M 345.347656 345.347656 L 375 345.347656 L 375 375 L 345.347656 375 Z M 345.347656 345.347656 " clip-rule="nonzero"/></clipPath><clipPath id="ee459c1e4a"><path d="M 0 345 L 30 345 L 30 374.996094 L 0 374.996094 Z M 0 345 " clip-rule="nonzero"/></clipPath><clipPath id="17f9ecdcbb"><path d="M 29.652344 345.347656 L 345.347656 345.347656 L 345.347656 375 L 29.652344 375 Z M 29.652344 345.347656 " clip-rule="nonzero"/></clipPath><clipPath id="96bb3ec962"><path d="M 0 0 L 29.652344 0 L 29.652344 29.648438 L 0 29.648438 Z M 0 0 " clip-rule="nonzero"/></clipPath><clipPath id="86d081c897"><path d="M 29.652344 0 L 345.347656 0 L 345.347656 29.648438 L 29.652344 29.648438 Z M 29.652344 0 " clip-rule="nonzero"/></clipPath><clipPath id="167524813e"><path d="M 0 345.34375 L 29.652344 345.34375 L 29.652344 375 L 0 375 Z M 0 345.34375 " clip-rule="nonzero"/></clipPath><clipPath id="883ad7b624"><path d="M 0.00390625 0 L 30 0 L 30 29.996094 L 0.00390625 29.996094 Z M 0.00390625 0 " clip-rule="nonzero"/></clipPath><clipPath id="ed60a1aaa8"><path d="M 0 29.652344 L 29.652344 29.652344 L 29.652344 345.34375 L 0 345.34375 Z M 0 29.652344 " clip-rule="nonzero"/></clipPath></defs><rect x="-37.5" width="450" fill="#ffffff" y="-37.499999" height="449.999989" fill-opacity="1"/><rect x="-37.5" width="450" fill="#f99305" y="-37.499999" height="449.999989" fill-opacity="1"/><g clip-path="url(#839ea56a43)"><path fill="#f9b850" d="M 374.996094 0.00390625 L 374.996094 29.652344 L 345.347656 29.652344 Z M 374.996094 0.00390625 " fill-opacity="1" fill-rule="nonzero"/></g><g clip-path="url(#5cf4d00ccb)"><path fill="#f9b850" d="M 345.347656 345.347656 L 374.996094 345.347656 L 374.996094 374.996094 Z M 345.347656 345.347656 " fill-opacity="1" fill-rule="nonzero"/></g><g clip-path="url(#59b3994e01)"><path fill="#f9b850" d="M 345.347656 345.34375 L 345.347656 29.703125 L 375.003906 29.703125 L 375.003906 345.34375 Z M 345.347656 345.34375 " fill-opacity="1" fill-rule="nonzero"/></g><g clip-path="url(#a6f5d61ae8)"><path fill="#c25d05" d="M 374.996094 374.996094 L 345.347656 374.996094 L 345.347656 345.347656 Z M 374.996094 374.996094 " fill-opacity="1" fill-rule="nonzero"/></g><g clip-path="url(#ee459c1e4a)"><path fill="#c25d05" d="M 29.648438 345.347656 L 29.648438 374.996094 L 0 374.996094 Z M 29.648438 345.347656 " fill-opacity="1" fill-rule="nonzero"/></g><g clip-path="url(#17f9ecdcbb)"><path fill="#c25d05" d="M 29.652344 345.347656 L 345.292969 345.347656 L 345.292969 375 L 29.652344 375 Z M 29.652344 345.347656 " fill-opacity="1" fill-rule="nonzero"/></g><g clip-path="url(#96bb3ec962)"><path fill="#f9c569" d="M 0.00390625 0 L 29.652344 0 L 29.652344 29.648438 Z M 0.00390625 0 " fill-opacity="1" fill-rule="nonzero"/></g><path fill="#f9c569" d="M 345.351562 29.648438 L 345.351562 0 L 375 0 Z M 345.351562 29.648438 " fill-opacity="1" fill-rule="nonzero"/><g clip-path="url(#86d081c897)"><path fill="#f9c569" d="M 345.347656 29.648438 L 29.707031 29.648438 L 29.707031 -0.00390625 L 345.347656 -0.00390625 Z M 345.347656 29.648438 " fill-opacity="1" fill-rule="nonzero"/></g><g clip-path="url(#167524813e)"><path fill="#c25d05" d="M 0.00390625 374.992188 L 0.00390625 345.34375 L 29.652344 345.34375 Z M 0.00390625 374.992188 " fill-opacity="1" fill-rule="nonzero"/></g><g clip-path="url(#883ad7b624)"><path fill="#c25d05" d="M 29.652344 29.644531 L 0.00390625 29.644531 L 0.00390625 -0.00390625 Z M 29.652344 29.644531 " fill-opacity="1" fill-rule="nonzero"/></g><g clip-path="url(#ed60a1aaa8)"><path fill="#c25d05" d="M 29.652344 29.652344 L 29.652344 345.292969 L -0.00390625 345.292969 L -0.00390625 29.652344 Z M 29.652344 29.652344 " fill-opacity="1" fill-rule="nonzero"/></g></svg>